<svg width="20" height="20" viewBox="0 0 20 20" fill="none" xmlns="http://www.w3.org/2000/svg">
<path d="M8.95624 3.74922H12.0875L15.5215 0.308419C15.6185 0.210691 15.7339 0.133123 15.8611 0.0801882C15.9883 0.0272535 16.1247 0 16.2625 0C16.4003 0 16.5367 0.0272535 16.6639 0.0801882C16.7911 0.133123 16.9066 0.210691 17.0036 0.308419L19.6965 3.00892C19.8909 3.20428 20 3.46855 20 3.744C20 4.01946 19.8909 4.28373 19.6965 4.47908L17.3063 6.87722H8.95624V8.96255C8.95624 9.23908 8.84628 9.50429 8.65054 9.69982C8.45479 9.89536 8.18931 10.0052 7.91249 10.0052C7.63567 10.0052 7.37019 9.89536 7.17444 9.69982C6.9787 9.50429 6.86873 9.23908 6.86873 8.96255V5.83455C6.86873 5.28148 7.08867 4.75107 7.48015 4.36C7.87164 3.96892 8.4026 3.74922 8.95624 3.74922ZM2.69372 8.96255V13.1332L0.303516 15.5209C0.109116 15.7163 0 15.9805 0 16.256C0 16.5315 0.109116 16.7957 0.303516 16.9911L2.9964 19.6916C3.09343 19.7893 3.20887 19.8669 3.33607 19.9198C3.46326 19.9727 3.59968 20 3.73747 20C3.87526 20 4.01168 19.9727 4.13887 19.9198C4.26607 19.8669 4.38151 19.7893 4.47854 19.6916L8.95624 15.2185H13.1313C13.4081 15.2185 13.6736 15.1087 13.8693 14.9132C14.0651 14.7176 14.175 14.4524 14.175 14.1759V13.1332H15.2188C15.4956 13.1332 15.7611 13.0234 15.9568 12.8278C16.1526 12.6323 16.2625 12.3671 16.2625 12.0905V11.0479H17.3063C17.5831 11.0479 17.8486 10.938 18.0443 10.7425C18.2401 10.547 18.35 10.2817 18.35 10.0052V8.96255H11.0438V10.0052C11.0438 10.5583 10.8238 11.0887 10.4323 11.4798C10.0409 11.8708 9.50989 12.0905 8.95624 12.0905H6.86873C6.31509 12.0905 5.78413 11.8708 5.39264 11.4798C5.00116 11.0887 4.78122 10.5583 4.78122 10.0052V6.87722L2.69372 8.96255Z" fill="white"/>
</svg>
