<svg width="19" height="19" viewBox="0 0 19 19" fill="none" xmlns="http://www.w3.org/2000/svg">
<path d="M0.611926 8.75976C0.281943 8.61834 0.0846606 8.37391 0.0200782 8.02649C-0.0445043 7.67906 0.0467129 7.38137 0.293729 7.13341L3.44035 3.98679C3.67606 3.75108 3.95607 3.58326 4.2804 3.48333C4.60472 3.38339 4.93164 3.36854 5.26115 3.43878L6.55162 3.70394C5.67953 4.74103 4.98138 5.6928 4.45717 6.55924C3.93297 7.42568 3.42315 8.49506 2.9277 9.76738L0.611926 8.75976ZM4.76618 10.8634C4.60119 10.6984 4.5128 10.504 4.50101 10.28C4.48923 10.0561 4.53048 9.8381 4.62476 9.62596C5.11973 8.49459 5.63521 7.50771 6.1712 6.66531C6.70719 5.82291 7.42325 4.95364 8.31939 4.0575C9.63932 2.73756 11.133 1.71532 12.8003 0.990775C14.4677 0.266226 16.0794 -0.0609282 17.6355 0.00931108C17.7769 0.00931108 17.9127 0.0446665 18.0428 0.115377C18.1729 0.186088 18.2846 0.268583 18.378 0.362864C18.4713 0.457145 18.5538 0.56934 18.6255 0.699447C18.6971 0.829555 18.7325 0.964848 18.7315 1.10533C18.8022 2.66096 18.4751 4.27269 17.7501 5.94052C17.0251 7.60835 16.0028 9.102 14.6834 10.4215C13.7759 11.3289 12.9038 12.0478 12.0671 12.5781C11.2303 13.1085 10.2463 13.6211 9.11489 14.1161C8.90275 14.2104 8.68473 14.2516 8.46081 14.2398C8.2369 14.228 8.04244 14.1397 7.87745 13.9747L4.76618 10.8634ZM12.6858 8.05336C13.2397 8.05289 13.7111 7.8582 14.1 7.46929C14.4889 7.08038 14.6834 6.60921 14.6834 6.05578C14.6834 5.50235 14.4889 5.03071 14.1 4.64086C13.7111 4.25101 13.2397 4.05679 12.6858 4.0582C12.1319 4.05962 11.6605 4.25384 11.2716 4.64086C10.8827 5.02788 10.6882 5.49952 10.6882 6.05578C10.6882 6.61204 10.8827 7.08321 11.2716 7.46929C11.6605 7.85537 12.1319 8.05006 12.6858 8.05336ZM9.98109 18.1289L8.97346 15.8131C10.2463 15.3182 11.3159 14.8086 12.1823 14.2844C13.0488 13.7602 14.0003 13.0618 15.0369 12.1892L15.3021 13.4797C15.3728 13.8097 15.3582 14.1368 15.2582 14.4612C15.1583 14.7855 14.9902 15.0653 14.7541 15.3005L11.6074 18.4471C11.36 18.6946 11.0625 18.7861 10.7151 18.7215C10.3676 18.6569 10.123 18.4594 9.98109 18.1289Z" fill="white"/>
</svg>
