<svg width="6008" height="4231" viewBox="0 0 6008 4231" fill="none" xmlns="http://www.w3.org/2000/svg">
<g filter="url(#filter0_d_211_167)">
<path fill-rule="evenodd" clip-rule="evenodd" d="M1453.77 2116.44C1453.77 2116.33 1453.77 2116.22 1453.77 2116.1C1453.77 2115.74 1453.77 2115.38 1453.77 2115.01C1453.77 2114.84 1453.77 2114.67 1453.77 2114.5C1453.77 2114.49 1453.77 2114.48 1453.77 2114.46L1453.77 2114.5L1453.77 2115.01L1453.77 2116.1L1453.77 2116.44Z" fill="white"/>
<path fill-rule="evenodd" clip-rule="evenodd" d="M1453.77 2116.44C1453.77 2116.33 1453.77 2116.22 1453.77 2116.1L1453.77 2116.44Z" fill="white"/>
<path fill-rule="evenodd" clip-rule="evenodd" d="M2969.76 0C2446.24 0.00366228 1967.87 190.087 1598.98 504.125C781.349 212.379 176.124 153.288 35.0366 397.198C-106.051 641.122 242.944 1130.04 897.527 1686.34C869.262 1823.78 854.418 1966 854.418 2111.53C854.43 3279.88 1799.27 4222.99 2969.76 4223C3503.42 4223 3991.05 4024.52 4362.62 3696.93C5202.24 4002.92 5828.53 4069.61 5973.27 3819.39C6118.15 3568.91 5741.03 3055.08 5046.69 2476.81C5067.33 2358.2 5078.1 2236.15 5078.1 2111.53C5078.1 950.199 4133.21 0 2969.76 0ZM1324.78 785.063C1242.39 886.746 1169.26 996.173 1106.67 1112.04C1217.52 1247.99 1371.17 1399.38 1559.26 1558.27C1780.93 1000.67 2327.9 605.294 2969.76 605.288C3801.8 605.288 4478.75 1281 4478.75 2111.53C4478.75 2459.74 4361.58 2779.86 4165.06 3035.19C4407.29 3115.9 4619.96 3165.46 4788.78 3180.02C4851.38 3073.32 4904.9 2960.6 4948.26 2842.93C5121.16 3053.34 5192.35 3226.97 5130.6 3333.75C4961.25 3626.53 3872.94 3314.28 2703.13 2640.12C1523.42 1960.26 708.358 1175.58 877.707 882.792C933.947 785.609 1093.34 755.977 1324.78 785.063ZM1453.8 2121.35C1459.08 2954.35 2133.96 3624.74 2969.76 3624.75C3238.92 3624.75 3491.85 3554.03 3710.88 3430C3351.59 3267.94 2970.17 3072.87 2582.2 2849.28C2169.59 2611.49 1788.9 2364.47 1453.8 2121.35Z" fill="white"/>
</g>
<defs>
<filter id="filter0_d_211_167" x="0" y="0" width="6008" height="4231" filterUnits="userSpaceOnUse" color-interpolation-filters="sRGB">
<feFlood flood-opacity="0" result="BackgroundImageFix"/>
<feColorMatrix in="SourceAlpha" type="matrix" values="0 0 0 0 0 0 0 0 0 0 0 0 0 0 0 0 0 0 127 0" result="hardAlpha"/>
<feOffset dy="4"/>
<feGaussianBlur stdDeviation="2"/>
<feComposite in2="hardAlpha" operator="out"/>
<feColorMatrix type="matrix" values="0 0 0 0 0 0 0 0 0 0 0 0 0 0 0 0 0 0 0.25 0"/>
<feBlend mode="normal" in2="BackgroundImageFix" result="effect1_dropShadow_211_167"/>
<feBlend mode="normal" in="SourceGraphic" in2="effect1_dropShadow_211_167" result="shape"/>
</filter>
</defs>
</svg>
